<?xml version="1.0" encoding="UTF-8" standalone="no"?>
<!-- Created with Inkscape (http://www.inkscape.org/) -->

<svg
   width="95.993767mm"
   height="89.481064mm"
   viewBox="0 0 95.993767 89.481063"
   version="1.1"
   id="svg5"
   sodipodi:docname="logo.svg"
   inkscape:version="1.1.2 (0a00cf5339, 2022-02-04)"
   inkscape:export-filename="/home/yves/dev/arpligner/logo.png"
   inkscape:export-xdpi="96"
   inkscape:export-ydpi="96"
   xmlns:inkscape="http://www.inkscape.org/namespaces/inkscape"
   xmlns:sodipodi="http://sodipodi.sourceforge.net/DTD/sodipodi-0.dtd"
   xmlns="http://www.w3.org/2000/svg"
   xmlns:svg="http://www.w3.org/2000/svg">
  <sodipodi:namedview
     id="namedview7"
     pagecolor="#ffffff"
     bordercolor="#666666"
     borderopacity="1.0"
     inkscape:pageshadow="2"
     inkscape:pageopacity="0.0"
     inkscape:pagecheckerboard="0"
     inkscape:document-units="mm"
     showgrid="false"
     showguides="false"
     inkscape:zoom="0.94475737"
     inkscape:cx="177.2942"
     inkscape:cy="219.10387"
     inkscape:window-width="1920"
     inkscape:window-height="1163"
     inkscape:window-x="0"
     inkscape:window-y="0"
     inkscape:window-maximized="1"
     inkscape:current-layer="layer1" />
  <defs
     id="defs2" />
  <g
     inkscape:label="Layer 1"
     inkscape:groupmode="layer"
     id="layer1"
     transform="translate(-51.196083,-52.463018)">
    <g
       aria-label="Arpligner"
       id="text1199-7"
       style="font-size:16.4405px;line-height:1.25;stroke-width:0.56047"
       transform="translate(-0.52916663,-1.5875)">
      <path
         d="m 77.167395,140.12789 c 0,-0.0562 -0.02408,-0.0883 -0.04816,-0.1445 L 72.55956,129.4833 c -0.0883,-0.19266 -0.385324,-0.28096 -0.690373,-0.28096 -0.200689,0 -0.66629,0.0482 -0.754593,0.26491 l -4.551642,10.70077 c -0.008,0.0321 -0.01606,0.0401 -0.01606,0.0722 0,0.15253 0.248856,0.24083 0.489683,0.24083 0.20069,0 0.393352,-0.0642 0.449545,-0.18464 l 1.509187,-3.54819 h 5.242015 l 1.501159,3.45186 c 0.08028,0.19267 0.385324,0.28097 0.690372,0.28097 0.369269,0 0.738538,-0.12844 0.738538,-0.35321 z m -3.243145,-4.11013 h -4.623891 l 2.287863,-5.37848 z"
         style="font-family:Gayathri;-inkscape-font-specification:Gayathri"
         id="path9138" />
      <path
         d="m 78.829106,140.4811 c 0.361241,0 0.650235,-0.16055 0.650235,-0.36927 v -3.94957 c 0,-1.27639 0.409407,-3.15485 1.942676,-3.15485 0.6984,0 0.907117,0.40941 1.284414,0.40941 0.128441,0 0.26491,-0.0401 0.377297,-0.12041 0.128441,-0.0963 0.216744,-0.21675 0.216744,-0.34519 0,-0.0883 -0.04816,-0.18463 -0.160551,-0.25688 -0.489683,-0.3211 -0.979366,-0.43349 -1.557352,-0.43349 -0.923173,0 -1.669739,0.3211 -2.103228,1.26033 v -0.89106 c 0,-0.20872 -0.288994,-0.36927 -0.650235,-0.36927 -0.361242,0 -0.658262,0.16055 -0.658262,0.36927 v 7.48171 c 0,0.20872 0.29702,0.36927 0.658262,0.36927 z"
         style="font-family:Gayathri;-inkscape-font-specification:Gayathri"
         id="path9140" />
      <path
         d="m 88.253494,140.4811 c 2.448414,0 3.949573,-1.78213 3.949573,-4.11013 0,-2.328 -1.501159,-4.11012 -3.949573,-4.11012 -1.164001,0 -2.167449,0.52982 -2.641077,1.20414 v -0.85093 c 0,-0.20069 -0.288993,-0.36124 -0.650234,-0.36124 -0.361242,0 -0.658263,0.16055 -0.658263,0.36124 v 10.55628 c 0,0.20069 0.297021,0.36124 0.658263,0.36124 0.361241,0 0.650234,-0.16055 0.650234,-0.36124 v -3.89338 c 0.473628,0.67432 1.477076,1.20414 2.641077,1.20414 z m 0,-0.73051 c -1.782125,0 -2.641077,-1.82226 -2.641077,-3.37962 0,-1.55735 0.858952,-3.37961 2.641077,-3.37961 1.782124,0 2.641076,1.82226 2.641076,3.37961 0,1.55736 -0.858952,3.37962 -2.641076,3.37962 z"
         style="font-family:Gayathri;-inkscape-font-specification:Gayathri"
         id="path9142" />
      <path
         d="m 93.206516,129.56358 v 10.55628 c 0,0.20069 0.288993,0.36124 0.658262,0.36124 0.361241,0 0.650234,-0.16055 0.650234,-0.36124 v -10.55628 c 0,-0.20069 -0.288993,-0.36124 -0.650234,-0.36124 -0.369269,0 -0.658262,0.16055 -0.658262,0.36124 z"
         style="font-family:Gayathri;-inkscape-font-specification:Gayathri"
         id="path9144" />
      <path
         d="m 97.083841,129.90877 c -0.40138,0 -0.722483,0.3211 -0.722483,0.72248 0,0.40138 0.321103,0.72248 0.722483,0.72248 0.401379,0 0.722483,-0.3211 0.722483,-0.72248 0,-0.40138 -0.321104,-0.72248 -0.722483,-0.72248 z m -0.658262,2.71332 v 7.48974 c 0,0.20069 0.29702,0.36927 0.658262,0.36927 0.361241,0 0.658262,-0.16858 0.658262,-0.36927 v -7.48974 c 0,-0.20069 -0.297021,-0.36124 -0.658262,-0.36124 -0.361242,0 -0.658262,0.16055 -0.658262,0.36124 z"
         style="font-family:Gayathri;-inkscape-font-specification:Gayathri"
         id="path9146" />
      <path
         d="m 106.69286,140.04761 v -7.42552 c 0,-0.20872 -0.28096,-0.36927 -0.6422,-0.36927 -0.36124,0 -0.65024,0.16055 -0.65024,0.36927 l -0.008,0.85092 c -0.49772,-0.66629 -1.46905,-1.22019 -2.63305,-1.22019 -2.44842,0 -3.949577,1.78213 -3.949577,4.11013 0,2.328 1.501157,4.11012 3.949577,4.11012 1.15597,0 2.12731,-0.50574 2.63305,-1.18808 v 0.76262 c 0,1.75001 -1.08373,2.75346 -2.80966,2.75346 -0.85092,0 -2.0069,-0.24885 -2.49658,-0.97134 -0.120414,-0.16858 -0.377297,-0.2328 -0.602069,-0.2328 -0.216745,0 -0.66629,0.0963 -0.66629,0.35322 0,0.0482 0.01605,0.0883 0.04816,0.13647 0.722483,1.06767 2.456449,1.44496 3.708749,1.44496 2.20758,0 4.11815,-1.05161 4.11815,-3.48397 z m -3.93351,-0.30505 c -1.78213,0 -2.64108,-1.82226 -2.64108,-3.37961 0,-1.55736 0.85895,-3.37962 2.64108,-3.37962 1.78212,0 2.64107,1.82226 2.64107,3.37962 0,1.55735 -0.85895,3.37961 -2.64107,3.37961 z"
         style="font-family:Gayathri;-inkscape-font-specification:Gayathri"
         id="path9148" />
      <path
         d="m 115.0255,140.48913 c 0.36124,0 0.65826,-0.16858 0.65826,-0.36927 v -4.25462 c 0,-2.39223 -1.79818,-3.62045 -3.50805,-3.61242 -1.02753,0 -2.07112,0.39335 -2.56883,1.28442 v -0.90712 c 0,-0.20069 -0.28899,-0.36927 -0.65023,-0.36927 -0.36125,0 -0.65827,0.16858 -0.65827,0.36927 v 7.48974 c 0,0.20069 0.29702,0.36927 0.65827,0.36927 0.36124,0 0.65023,-0.16858 0.65023,-0.36927 v -4.02182 c 0,-2.05507 1.11583,-3.09063 2.45644,-3.09063 1.57341,0 2.31195,1.46103 2.31195,2.85783 v 4.25462 c 0,0.20069 0.28899,0.36927 0.65023,0.36927 z"
         style="font-family:Gayathri;-inkscape-font-specification:Gayathri"
         id="path9150" />
      <path
         d="m 121.06225,140.4811 c 0.97936,0 2.01492,-0.25688 2.83374,-0.80276 0.48968,-0.3211 0.85092,-0.72248 1.05964,-1.15597 0.0803,-0.16858 0.1766,-0.44152 0.1766,-0.62615 0,-0.27294 -0.45757,-0.36125 -0.65826,-0.36125 -0.34518,0 -0.61812,0.15253 -0.6422,0.34519 -0.0482,0.48968 -0.40138,0.96331 -0.93923,1.32455 -0.52982,0.36124 -1.18809,0.54588 -1.82226,0.54588 -1.8624,0 -2.88191,-1.64566 -2.88191,-3.35553 h 6.44615 c 0.289,0 0.65024,-0.0963 0.65024,-0.43349 0,-2.42433 -1.85437,-3.70072 -4.15829,-3.70072 -2.45644,0 -4.23857,1.69382 -4.23857,4.17434 0,2.44842 1.76607,4.04591 4.17435,4.04591 z m 2.90598,-4.82458 h -5.70761 c 0.27294,-1.44497 1.3085,-2.66516 2.86585,-2.66516 1.63763,0 2.72135,1.05964 2.84176,2.66516 z"
         style="font-family:Gayathri;-inkscape-font-specification:Gayathri"
         id="path9152" />
      <path
         d="m 127.14716,140.4811 c 0.36124,0 0.65023,-0.16055 0.65023,-0.36927 v -3.94957 c 0,-1.27639 0.40941,-3.15485 1.94268,-3.15485 0.6984,0 0.90712,0.40941 1.28441,0.40941 0.12845,0 0.26491,-0.0401 0.3773,-0.12041 0.12844,-0.0963 0.21675,-0.21675 0.21675,-0.34519 0,-0.0883 -0.0482,-0.18463 -0.16056,-0.25688 -0.48968,-0.3211 -0.97936,-0.43349 -1.55735,-0.43349 -0.92317,0 -1.66974,0.3211 -2.10323,1.26033 v -0.89106 c 0,-0.20872 -0.28899,-0.36927 -0.65023,-0.36927 -0.36124,0 -0.65826,0.16055 -0.65826,0.36927 v 7.48171 c 0,0.20872 0.29702,0.36927 0.65826,0.36927 z"
         style="font-family:Gayathri;-inkscape-font-specification:Gayathri"
         id="path9154" />
    </g>
    <rect
       id="rect32935"
       width="20.654793"
       height="5.3231158"
       x="104.03751"
       y="59.775448"
       style="stroke-width:0.56047" />
    <rect
       id="rect32935-4"
       width="20.654793"
       height="5.3231158"
       x="104.03751"
       y="70.28653"
       style="stroke-width:0.56047" />
    <rect
       id="rect32935-3"
       width="12.928518"
       height="5.1879678"
       x="124.69231"
       y="65.098564"
       style="stroke-width:0.437756" />
    <rect
       id="rect32935-3-4"
       width="12.928518"
       height="5.1879678"
       x="124.69231"
       y="54.587479"
       style="stroke-width:0.437756" />
    <rect
       id="rect32935-1"
       width="9.5615292"
       height="5.3231158"
       x="137.62082"
       y="70.28653"
       style="stroke-width:0.381333" />
    <rect
       id="rect32935-1-8"
       width="9.5690289"
       height="5.3231158"
       x="137.62082"
       y="59.775448"
       style="stroke-width:0.381485" />
    <rect
       id="rect32935-3-5-1"
       width="5.3164525"
       height="5.1879678"
       x="136.57549"
       y="91.716705"
       style="stroke-width:0.280717" />
    <rect
       id="rect32935-3-5-1-5"
       width="5.3164525"
       height="5.1879678"
       x="125.94257"
       y="81.340759"
       style="stroke-width:0.280717" />
    <rect
       id="rect32935-3-5-1-5-9"
       width="5.3164525"
       height="5.1879678"
       x="120.62611"
       y="86.528732"
       style="stroke-width:0.280717" />
    <rect
       id="rect32935-3-5-1-5-9-8"
       width="5.3164525"
       height="5.1879678"
       x="115.30966"
       y="81.340759"
       style="stroke-width:0.280717" />
    <rect
       id="rect32935-3-5-1-6"
       width="5.3164525"
       height="5.1879678"
       x="131.25903"
       y="86.528732"
       style="stroke-width:0.280717" />
    <rect
       id="rect32935-3-5-1-2"
       width="8.1288624"
       height="5.1879678"
       x="116.79124"
       y="103.39246"
       style="stroke-width:0.347115" />
    <rect
       id="rect32935-3-5-1-2-1"
       width="10.176064"
       height="5.1879678"
       x="125.26531"
       y="113.56165"
       style="stroke-width:0.388372" />
    <rect
       id="rect32935-3-5-9"
       width="5.1917739"
       height="5.1879678"
       x="141.89194"
       y="86.528732"
       style="stroke-width:0.277406" />
    <rect
       id="rect32935-3-5-1-2-4"
       width="10.881995"
       height="5.1879678"
       x="132.84131"
       y="103.45959"
       style="stroke-width:0.401618" />
    <rect
       id="rect32935-3-5-1-2-4-3"
       width="5.3427777"
       height="5.1879678"
       x="141.52191"
       y="113.53826"
       style="stroke-width:0.281411" />
    <rect
       id="rect32935-1-8-1"
       width="8.548562"
       height="5.3231158"
       x="65.495003"
       y="104.53762"
       style="stroke-width:0.360569" />
    <rect
       id="rect32935-1-8-1-2"
       width="14.139499"
       height="5.3231158"
       x="51.196083"
       y="109.56905"
       style="stroke-width:0.463722" />
    <rect
       id="rect32935-1-8-1-2-1"
       width="14.139499"
       height="5.3231158"
       x="51.663578"
       y="54.737114"
       style="stroke-width:0.463722" />
    <rect
       id="rect32935-1-8-1-2-1-5"
       width="14.139499"
       height="5.3231158"
       x="51.467693"
       y="73.231071"
       style="stroke-width:0.463722" />
    <rect
       id="rect32935-1-8-1-5"
       width="29.84614"
       height="5.3231158"
       x="51.284042"
       y="90.884552"
       style="stroke-width:0.673728" />
    <rect
       id="rect32935-1-8-1-5-0"
       width="20.671041"
       height="5.3231158"
       x="65.640831"
       y="78.554184"
       style="stroke-width:0.56069" />
    <rect
       id="rect32935-1-8-1-5-0-5"
       width="26.887655"
       height="5.3231158"
       x="65.803078"
       y="60.06023"
       style="stroke-width:0.639466" />
    <g
       aria-label="A"
       id="text1199"
       style="font-size:107.61px;line-height:1.25;stroke-width:0.56047">
      <path
         d="m 128.10473,126.28726 c 1.68141,0 5.62221,-0.68307 5.62221,-2.83737 0,-0.21018 -0.0526,-0.42035 -0.15763,-0.68307 L 103.51417,54.669864 c -0.78816,-1.73395 -3.678078,-2.206846 -5.464572,-2.206846 -1.681406,0 -5.254395,0.420352 -5.99001,2.154302 l -29.844961,69.09529 c -0.05254,0.15763 -0.105088,0.31526 -0.105088,0.47289 0,1.3136 2.154302,2.10176 4.25606,2.10176 1.73395,0 3.4679,-0.52544 3.940796,-1.62886 l 9.668086,-22.43627 h 32.734879 l 9.61554,21.80574 c 0.73562,1.68141 3.67808,2.25939 5.77983,2.25939 z M 110.08216,96.337213 H 82.549134 L 96.158016,64.758301 Z"
         style="font-weight:bold;font-family:Gayathri;-inkscape-font-specification:'Gayathri, Bold'"
         id="path9117" />
    </g>
  </g>
</svg>
