<?xml version="1.0" encoding="UTF-8" standalone="no"?>
<!-- Created with Inkscape (http://www.inkscape.org/) -->

<svg
   width="96mm"
   height="96mm"
   viewBox="0 0 96 95.999999"
   version="1.1"
   id="svg5"
   sodipodi:docname="logo_no_text.svg"
   inkscape:version="1.1.2 (0a00cf5339, 2022-02-04)"
   inkscape:export-filename="/home/yves/dev/arpligner/logo.png"
   inkscape:export-xdpi="96"
   inkscape:export-ydpi="96"
   xmlns:inkscape="http://www.inkscape.org/namespaces/inkscape"
   xmlns:sodipodi="http://sodipodi.sourceforge.net/DTD/sodipodi-0.dtd"
   xmlns="http://www.w3.org/2000/svg"
   xmlns:svg="http://www.w3.org/2000/svg">
  <sodipodi:namedview
     id="namedview7"
     pagecolor="#ffffff"
     bordercolor="#666666"
     borderopacity="1.0"
     inkscape:pageshadow="2"
     inkscape:pageopacity="0.0"
     inkscape:pagecheckerboard="0"
     inkscape:document-units="mm"
     showgrid="false"
     showguides="false"
     inkscape:zoom="0.94475737"
     inkscape:cx="100.02568"
     inkscape:cy="219.10387"
     inkscape:window-width="1920"
     inkscape:window-height="1163"
     inkscape:window-x="0"
     inkscape:window-y="0"
     inkscape:window-maximized="1"
     inkscape:current-layer="layer1"
     height="73.82424mm" />
  <defs
     id="defs2" />
  <g
     inkscape:label="Layer 1"
     inkscape:groupmode="layer"
     id="layer1"
     transform="translate(-51.196083,-52.463018)">
    <rect
       id="rect32935"
       width="20.654793"
       height="5.3231158"
       x="104.03751"
       y="70.887955"
       style="stroke-width:0.56047" />
    <rect
       id="rect32935-4"
       width="20.654793"
       height="5.3231158"
       x="104.03751"
       y="81.39904"
       style="stroke-width:0.56047" />
    <rect
       id="rect32935-3"
       width="12.928518"
       height="5.1879678"
       x="124.69231"
       y="76.211075"
       style="stroke-width:0.437756" />
    <rect
       id="rect32935-3-4"
       width="12.928518"
       height="5.1879678"
       x="124.69231"
       y="65.699989"
       style="stroke-width:0.437756" />
    <rect
       id="rect32935-1"
       width="9.5615292"
       height="5.3231158"
       x="137.62082"
       y="81.39904"
       style="stroke-width:0.381333" />
    <rect
       id="rect32935-1-8"
       width="9.5690289"
       height="5.3231158"
       x="137.62082"
       y="70.887955"
       style="stroke-width:0.381485" />
    <rect
       id="rect32935-3-5-1"
       width="5.3164525"
       height="5.1879678"
       x="136.57549"
       y="102.8292"
       style="stroke-width:0.280717" />
    <rect
       id="rect32935-3-5-1-5"
       width="5.3164525"
       height="5.1879678"
       x="125.94257"
       y="92.45327"
       style="stroke-width:0.280717" />
    <rect
       id="rect32935-3-5-1-5-9"
       width="5.3164525"
       height="5.1879678"
       x="120.62611"
       y="97.641243"
       style="stroke-width:0.280717" />
    <rect
       id="rect32935-3-5-1-5-9-8"
       width="5.3164525"
       height="5.1879678"
       x="115.30966"
       y="92.45327"
       style="stroke-width:0.280717" />
    <rect
       id="rect32935-3-5-1-6"
       width="5.3164525"
       height="5.1879678"
       x="131.25903"
       y="97.641243"
       style="stroke-width:0.280717" />
    <rect
       id="rect32935-3-5-1-2"
       width="8.1288624"
       height="5.1879678"
       x="116.79124"
       y="114.50494"
       style="stroke-width:0.347115" />
    <rect
       id="rect32935-3-5-1-2-1"
       width="10.176064"
       height="5.1879678"
       x="125.26531"
       y="124.67414"
       style="stroke-width:0.388372" />
    <rect
       id="rect32935-3-5-9"
       width="5.1917739"
       height="5.1879678"
       x="141.89194"
       y="97.641243"
       style="stroke-width:0.277406" />
    <rect
       id="rect32935-3-5-1-2-4"
       width="10.881995"
       height="5.1879678"
       x="132.84131"
       y="114.57207"
       style="stroke-width:0.401618" />
    <rect
       id="rect32935-3-5-1-2-4-3"
       width="5.3427777"
       height="5.1879678"
       x="141.52191"
       y="124.65076"
       style="stroke-width:0.281411" />
    <rect
       id="rect32935-1-8-1"
       width="8.548562"
       height="5.3231158"
       x="65.495003"
       y="115.6501"
       style="stroke-width:0.360569" />
    <rect
       id="rect32935-1-8-1-2"
       width="14.139499"
       height="5.3231158"
       x="51.196083"
       y="120.68153"
       style="stroke-width:0.463722" />
    <rect
       id="rect32935-1-8-1-2-1"
       width="14.139499"
       height="5.3231158"
       x="51.663578"
       y="65.849625"
       style="stroke-width:0.463722" />
    <rect
       id="rect32935-1-8-1-2-1-5"
       width="14.139499"
       height="5.3231158"
       x="51.467693"
       y="84.343582"
       style="stroke-width:0.463722" />
    <rect
       id="rect32935-1-8-1-5"
       width="29.84614"
       height="5.3231158"
       x="51.284042"
       y="101.99708"
       style="stroke-width:0.673728" />
    <rect
       id="rect32935-1-8-1-5-0"
       width="20.671041"
       height="5.3231158"
       x="65.640831"
       y="89.666695"
       style="stroke-width:0.56069" />
    <rect
       id="rect32935-1-8-1-5-0-5"
       width="26.887655"
       height="5.3231158"
       x="65.803078"
       y="71.172737"
       style="stroke-width:0.639466" />
    <g
       aria-label="A"
       id="text1199"
       style="font-size:107.61px;line-height:1.25;stroke-width:0.56047;fill:#000000">
      <path
         d="m 128.10473,137.39965 c 1.68141,0 5.62221,-0.68307 5.62221,-2.83737 0,-0.21018 -0.0526,-0.42035 -0.15763,-0.68307 L 103.51417,65.782252 c -0.78816,-1.73395 -3.678078,-2.206845 -5.464572,-2.206845 -1.681406,0 -5.254395,0.420351 -5.99001,2.154301 L 62.214627,134.825 c -0.05254,0.15763 -0.105088,0.31526 -0.105088,0.47289 0,1.3136 2.154302,2.10176 4.25606,2.10176 1.73395,0 3.4679,-0.52544 3.940796,-1.62886 l 9.668086,-22.43627 h 32.734879 l 9.61554,21.80574 c 0.73562,1.68141 3.67808,2.25939 5.77983,2.25939 z M 110.08216,107.4496 H 82.549134 L 96.158016,75.87069 Z"
         style="font-weight:bold;font-family:Gayathri;-inkscape-font-specification:'Gayathri, Bold';fill:#000000"
         id="path846" />
    </g>
  </g>
</svg>
