<?xml version="1.0" encoding="UTF-8" standalone="no"?>
<!-- Created with Inkscape (http://www.inkscape.org/) -->

<svg
   width="95.993767mm"
   height="74.862854mm"
   viewBox="0 0 95.993767 74.862853"
   version="1.1"
   id="svg5"
   sodipodi:docname="logo_light.svg"
   inkscape:version="1.1.2 (0a00cf5339, 2022-02-04)"
   inkscape:export-filename="/home/yves/dev/arpligner/logo.png"
   inkscape:export-xdpi="96"
   inkscape:export-ydpi="96"
   xmlns:inkscape="http://www.inkscape.org/namespaces/inkscape"
   xmlns:sodipodi="http://sodipodi.sourceforge.net/DTD/sodipodi-0.dtd"
   xmlns="http://www.w3.org/2000/svg"
   xmlns:svg="http://www.w3.org/2000/svg">
  <sodipodi:namedview
     id="namedview7"
     pagecolor="#ffffff"
     bordercolor="#666666"
     borderopacity="1.0"
     inkscape:pageshadow="2"
     inkscape:pageopacity="0.0"
     inkscape:pagecheckerboard="0"
     inkscape:document-units="mm"
     showgrid="false"
     showguides="false"
     inkscape:zoom="0.94475737"
     inkscape:cx="177.2942"
     inkscape:cy="219.10387"
     inkscape:window-width="1920"
     inkscape:window-height="1163"
     inkscape:window-x="0"
     inkscape:window-y="0"
     inkscape:window-maximized="1"
     inkscape:current-layer="text3416" />
  <defs
     id="defs2" />
  <g
     inkscape:label="Layer 1"
     inkscape:groupmode="layer"
     id="layer1"
     transform="translate(-51.196083,-52.463018)">
    <rect
       id="rect32935"
       width="20.654793"
       height="5.3231158"
       x="104.03751"
       y="59.775448"
       style="stroke-width:0.56047;fill:#f2f2f2" />
    <rect
       id="rect32935-4"
       width="20.654793"
       height="5.3231158"
       x="104.03751"
       y="70.28653"
       style="stroke-width:0.56047;fill:#f2f2f2" />
    <rect
       id="rect32935-3"
       width="12.928518"
       height="5.1879678"
       x="124.69231"
       y="65.098564"
       style="stroke-width:0.437756;fill:#f2f2f2" />
    <rect
       id="rect32935-3-4"
       width="12.928518"
       height="5.1879678"
       x="124.69231"
       y="54.587479"
       style="stroke-width:0.437756;fill:#f2f2f2" />
    <rect
       id="rect32935-1"
       width="9.5615292"
       height="5.3231158"
       x="137.62082"
       y="70.28653"
       style="stroke-width:0.381333;fill:#f2f2f2" />
    <rect
       id="rect32935-1-8"
       width="9.5690289"
       height="5.3231158"
       x="137.62082"
       y="59.775448"
       style="stroke-width:0.381485;fill:#f2f2f2" />
    <rect
       id="rect32935-3-5-1"
       width="5.3164525"
       height="5.1879678"
       x="136.57549"
       y="91.716705"
       style="stroke-width:0.280717;fill:#f2f2f2" />
    <rect
       id="rect32935-3-5-1-5"
       width="5.3164525"
       height="5.1879678"
       x="125.94257"
       y="81.340759"
       style="stroke-width:0.280717;fill:#f2f2f2" />
    <rect
       id="rect32935-3-5-1-5-9"
       width="5.3164525"
       height="5.1879678"
       x="120.62611"
       y="86.528732"
       style="stroke-width:0.280717;fill:#f2f2f2" />
    <rect
       id="rect32935-3-5-1-5-9-8"
       width="5.3164525"
       height="5.1879678"
       x="115.30966"
       y="81.340759"
       style="stroke-width:0.280717;fill:#f2f2f2" />
    <rect
       id="rect32935-3-5-1-6"
       width="5.3164525"
       height="5.1879678"
       x="131.25903"
       y="86.528732"
       style="stroke-width:0.280717;fill:#f2f2f2" />
    <rect
       id="rect32935-3-5-1-2"
       width="8.1288624"
       height="5.1879678"
       x="116.79124"
       y="103.39246"
       style="stroke-width:0.347115;fill:#f2f2f2" />
    <rect
       id="rect32935-3-5-1-2-1"
       width="10.176064"
       height="5.1879678"
       x="125.26531"
       y="113.56165"
       style="stroke-width:0.388372;fill:#f2f2f2" />
    <rect
       id="rect32935-3-5-9"
       width="5.1917739"
       height="5.1879678"
       x="141.89194"
       y="86.528732"
       style="stroke-width:0.277406;fill:#f2f2f2" />
    <rect
       id="rect32935-3-5-1-2-4"
       width="10.881995"
       height="5.1879678"
       x="132.84131"
       y="103.45959"
       style="stroke-width:0.401618;fill:#f2f2f2" />
    <rect
       id="rect32935-3-5-1-2-4-3"
       width="5.3427777"
       height="5.1879678"
       x="141.52191"
       y="113.53826"
       style="stroke-width:0.281411;fill:#f2f2f2" />
    <rect
       id="rect32935-1-8-1"
       width="8.548562"
       height="5.3231158"
       x="65.495003"
       y="104.53762"
       style="stroke-width:0.360569;fill:#f2f2f2" />
    <rect
       id="rect32935-1-8-1-2"
       width="14.139499"
       height="5.3231158"
       x="51.196083"
       y="109.56905"
       style="stroke-width:0.463722;fill:#f2f2f2" />
    <rect
       id="rect32935-1-8-1-2-1"
       width="14.139499"
       height="5.3231158"
       x="51.663578"
       y="54.737114"
       style="stroke-width:0.463722;fill:#f2f2f2" />
    <rect
       id="rect32935-1-8-1-2-1-5"
       width="14.139499"
       height="5.3231158"
       x="51.467693"
       y="73.231071"
       style="stroke-width:0.463722;fill:#f2f2f2" />
    <rect
       id="rect32935-1-8-1-5"
       width="29.84614"
       height="5.3231158"
       x="51.284042"
       y="90.884552"
       style="stroke-width:0.673728;fill:#f2f2f2" />
    <rect
       id="rect32935-1-8-1-5-0"
       width="20.671041"
       height="5.3231158"
       x="65.640831"
       y="78.554184"
       style="stroke-width:0.56069;fill:#f2f2f2" />
    <rect
       id="rect32935-1-8-1-5-0-5"
       width="26.887655"
       height="5.3231158"
       x="65.803078"
       y="60.06023"
       style="stroke-width:0.639466;fill:#f2f2f2" />
    <g
       aria-label="A"
       id="text1199"
       style="font-size:107.61px;line-height:1.25;stroke-width:0.56047;fill:#f2f2f2">
      <path
         d="m 128.10473,126.28726 c 1.68141,0 5.62221,-0.68307 5.62221,-2.83737 0,-0.21018 -0.0526,-0.42035 -0.15763,-0.68307 L 103.51417,54.669864 c -0.78816,-1.73395 -3.678078,-2.206846 -5.464572,-2.206846 -1.681406,0 -5.254395,0.420352 -5.99001,2.154302 l -29.844961,69.09529 c -0.05254,0.15763 -0.105088,0.31526 -0.105088,0.47289 0,1.3136 2.154302,2.10176 4.25606,2.10176 1.73395,0 3.4679,-0.52544 3.940796,-1.62886 l 9.668086,-22.43627 h 32.734879 l 9.61554,21.80574 c 0.73562,1.68141 3.67808,2.25939 5.77983,2.25939 z M 110.08216,96.337213 H 82.549134 L 96.158016,64.758301 Z"
         style="font-weight:bold;font-family:Gayathri;-inkscape-font-specification:'Gayathri, Bold';fill:#f2f2f2"
         id="path9117" />
    </g>
    <g
       aria-label="rpligner"
       id="text3416"
       style="font-weight:bold;font-size:11.7188px;line-height:1.25;font-family:Gayathri;-inkscape-font-specification:'Gayathri, Bold';fill:#f2f2f2;stroke-width:0.156948">
      <path
         d="m 73.756955,125.15148 c 0.183107,0 0.577929,-0.0801 0.577929,-0.32043 v -2.75232 c 0,-0.48638 0.0515,-1.02425 0.268938,-1.46485 0.188828,-0.3891 0.509264,-0.69809 1.001362,-0.69809 0.217439,0 0.434877,0.0801 0.600817,0.21171 0.08583,0.063 0.200273,0.0973 0.314714,0.0973 0.125886,0 0.251771,-0.04 0.354768,-0.10872 0.114442,-0.0744 0.183107,-0.17738 0.183107,-0.28038 0,-0.0744 -0.04578,-0.1545 -0.143052,-0.21744 -0.371935,-0.24033 -0.755313,-0.32616 -1.195913,-0.32616 -0.537874,0 -1.070027,0.22316 -1.384741,0.66948 v -0.34904 c 0,-0.24033 -0.394822,-0.32044 -0.577929,-0.32044 -0.188828,0 -0.583651,0.0801 -0.583651,0.32044 v 5.21853 c 0,0.24032 0.394823,0.32043 0.583651,0.32043 z"
         id="path1058" />
      <path
         d="m 78.3575,127.32587 c 0.183106,0 0.577929,-0.0801 0.577929,-0.32044 v -2.51771 c 0.457765,0.45777 1.121526,0.66376 1.768119,0.66376 1.76812,0 2.9297,-1.20735 2.9297,-2.9297 0,-1.72234 -1.16158,-2.9297 -2.9297,-2.9297 -0.646593,0 -1.310354,0.20027 -1.768119,0.66376 v -0.34904 c 0,-0.24033 -0.394823,-0.32044 -0.577929,-0.32044 -0.188829,0 -0.583651,0.0801 -0.583651,0.32044 v 7.39863 c 0,0.24033 0.394822,0.32044 0.583651,0.32044 z m 2.346048,-2.81526 c -1.201634,0 -1.768119,-1.26458 -1.768119,-2.28883 0,-1.02425 0.566485,-2.28883 1.768119,-2.28883 1.201635,0 1.76812,1.26458 1.76812,2.28883 0,1.02425 -0.566485,2.28883 -1.76812,2.28883 z"
         id="path1060" />
      <path
         d="m 84.932158,125.15148 c 0.183106,0 0.577929,-0.0801 0.577929,-0.32043 v -7.39864 c 0,-0.24033 -0.394823,-0.32044 -0.577929,-0.32044 -0.188828,0 -0.583651,0.0801 -0.583651,0.32044 v 7.39864 c 0,0.24032 0.394823,0.32043 0.583651,0.32043 z"
         id="path1062" />
      <path
         d="m 87.415537,118.78854 c 0.30327,0 0.583652,-0.2346 0.583652,-0.58365 0,-0.35477 -0.280382,-0.58937 -0.583652,-0.58937 -0.308991,0 -0.589373,0.2346 -0.589373,0.58937 0,0.34905 0.280382,0.58365 0.589373,0.58365 z m 0,6.36294 c 0.183107,0 0.577929,-0.0801 0.577929,-0.32043 v -5.21853 c 0,-0.24033 -0.394822,-0.32044 -0.577929,-0.32044 -0.188828,0 -0.583651,0.0801 -0.583651,0.32044 v 5.21853 c 0,0.24032 0.394823,0.32043 0.583651,0.32043 z"
         id="path1064" />
      <path
         d="m 94.55668,124.78527 0.0057,-5.17847 c 0,-0.24033 -0.383379,-0.32044 -0.572207,-0.32044 -0.183106,0 -0.577929,0.0801 -0.577929,0.32044 v 0.34904 c -0.457766,-0.45204 -1.127248,-0.66948 -1.76812,-0.66948 -1.768119,0 -2.9297,1.20736 -2.9297,2.9297 0,1.72234 1.155858,2.9297 2.923978,2.9297 0.646594,0 1.310354,-0.19455 1.762398,-0.65804 v 0.29755 c 0,1.18447 -0.709537,1.89973 -1.894005,1.89973 -0.566485,0 -1.333243,-0.16594 -1.659401,-0.64087 -0.102997,-0.14878 -0.337602,-0.20028 -0.543596,-0.20028 -0.188829,0 -0.583652,0.0858 -0.583652,0.31472 0,0.0343 0.01144,0.0744 0.04005,0.11444 0.537874,0.7782 1.831062,1.05286 2.76376,1.05286 1.596457,0 3.032697,-0.77248 3.032697,-2.5406 z m -2.918256,-0.28038 c -1.201635,0 -1.762397,-1.26458 -1.762397,-2.28883 0,-1.02425 0.566484,-2.28883 1.768119,-2.28883 1.201635,0 1.76812,1.26458 1.76812,2.28883 0,1.02425 -0.572207,2.28883 -1.773842,2.28883 z"
         id="path1066" />
      <path
         d="m 100.61635,125.15148 c 0.18883,0 0.58365,-0.0801 0.58365,-0.32043 v -2.96976 c 0,-1.48201 -1.09291,-2.56921 -2.614982,-2.56921 -0.623706,0 -1.287466,0.21172 -1.716622,0.66948 v -0.34332 c 0,-0.24033 -0.394822,-0.32044 -0.577929,-0.32044 -0.188828,0 -0.583651,0.0801 -0.583651,0.32044 v 5.21281 c 0,0.24032 0.394823,0.32043 0.583651,0.32043 0.183107,0 0.577929,-0.0801 0.577929,-0.32043 v -2.80954 c 0,-0.95559 0.520709,-2.08283 1.647957,-2.08283 1.052861,0 1.522067,1.03569 1.522067,1.92833 v 2.96404 c 0,0.24032 0.39483,0.32043 0.57793,0.32043 z"
         id="path1068" />
      <path
         d="m 105.14251,125.15148 c 0.73243,0 1.5049,-0.1831 2.11717,-0.58365 0.33188,-0.21744 0.65231,-0.52643 0.80681,-0.89264 0.0458,-0.10872 0.0973,-0.26894 0.0973,-0.3891 0,-0.23461 -0.40626,-0.31472 -0.58937,-0.31472 -0.17738,0 -0.5436,0.0801 -0.56648,0.29755 -0.0401,0.37766 -0.33188,0.69237 -0.64088,0.89264 -0.36049,0.22889 -0.78964,0.35477 -1.2188,0.35477 -1.2188,0 -1.92261,-1.09291 -1.93406,-2.22016 h 4.48038 c 0.24605,0 0.57793,-0.0687 0.57793,-0.36621 0,-1.75096 -1.4019,-2.63788 -3.07847,-2.63788 -1.7624,0 -3.1357,1.14442 -3.1357,2.96403 0,1.79673 1.35041,2.89537 3.0842,2.89537 z m 1.95695,-3.49046 h -3.81662 c 0.20599,-0.94414 0.89264,-1.73379 1.91117,-1.73379 1.08147,0 1.79673,0.69809 1.90545,1.73379 z"
         id="path1070" />
      <path
         d="m 109.71444,125.15148 c 0.18311,0 0.57793,-0.0801 0.57793,-0.32043 v -2.75232 c 0,-0.48638 0.0515,-1.02425 0.26894,-1.46485 0.18883,-0.3891 0.50926,-0.69809 1.00136,-0.69809 0.21744,0 0.43488,0.0801 0.60082,0.21171 0.0858,0.063 0.20027,0.0973 0.31471,0.0973 0.12589,0 0.25178,-0.04 0.35477,-0.10872 0.11444,-0.0744 0.18311,-0.17738 0.18311,-0.28038 0,-0.0744 -0.0458,-0.1545 -0.14305,-0.21744 -0.37194,-0.24033 -0.75532,-0.32616 -1.19592,-0.32616 -0.53787,0 -1.07002,0.22316 -1.38474,0.66948 v -0.34904 c 0,-0.24033 -0.39482,-0.32044 -0.57793,-0.32044 -0.18882,0 -0.58365,0.0801 -0.58365,0.32044 v 5.21853 c 0,0.24032 0.39483,0.32043 0.58365,0.32043 z"
         id="path1072" />
    </g>
  </g>
</svg>
